<?xml version="1.0" encoding="UTF-8" standalone="no"?>
<!-- Created with Inkscape (http://www.inkscape.org/) -->

<svg
   width="210mm"
   height="297mm"
   viewBox="0 0 210 297"
   version="1.1"
   id="svg5"
   xml:space="preserve"
   inkscape:version="1.2.2 (732a01da63, 2022-12-09)"
   sodipodi:docname="capacetee.svg"
   xmlns:inkscape="http://www.inkscape.org/namespaces/inkscape"
   xmlns:sodipodi="http://sodipodi.sourceforge.net/DTD/sodipodi-0.dtd"
   xmlns:xlink="http://www.w3.org/1999/xlink"
   xmlns="http://www.w3.org/2000/svg"
   xmlns:svg="http://www.w3.org/2000/svg"><sodipodi:namedview
     id="namedview7"
     pagecolor="#ffffff"
     bordercolor="#000000"
     borderopacity="0.25"
     inkscape:showpageshadow="2"
     inkscape:pageopacity="0.0"
     inkscape:pagecheckerboard="0"
     inkscape:deskcolor="#d1d1d1"
     inkscape:document-units="mm"
     showgrid="false"
     inkscape:zoom="0.25"
     inkscape:cx="484"
     inkscape:cy="388"
     inkscape:window-width="1280"
     inkscape:window-height="657"
     inkscape:window-x="-8"
     inkscape:window-y="-8"
     inkscape:window-maximized="1"
     inkscape:current-layer="layer1" /><defs
     id="defs2"><linearGradient
       inkscape:collect="always"
       id="linearGradient95387"><stop
         style="stop-color:#f87600;stop-opacity:1;"
         offset="0.84121615"
         id="stop95383" /><stop
         style="stop-color:#d63600;stop-opacity:1;"
         offset="1"
         id="stop95385" /></linearGradient><linearGradient
       inkscape:collect="always"
       id="linearGradient95365"><stop
         style="stop-color:#bf251f;stop-opacity:1;"
         offset="0.72923076"
         id="stop95361" /><stop
         style="stop-color:#7f0000;stop-opacity:1;"
         offset="1"
         id="stop95363" /></linearGradient><linearGradient
       inkscape:collect="always"
       id="linearGradient83775"><stop
         style="stop-color:#ffc78f;stop-opacity:1;"
         offset="0"
         id="stop83771" /><stop
         style="stop-color:#c82a00;stop-opacity:1;"
         offset="1"
         id="stop83773" /></linearGradient><linearGradient
       inkscape:collect="always"
       id="linearGradient83146"><stop
         style="stop-color:#bf251f;stop-opacity:1;"
         offset="0"
         id="stop83142" /><stop
         style="stop-color:#9b1c34;stop-opacity:1;"
         offset="1"
         id="stop83144" /></linearGradient><linearGradient
       inkscape:collect="always"
       id="linearGradient83138"><stop
         style="stop-color:#752e12;stop-opacity:1;"
         offset="0"
         id="stop83134" /><stop
         style="stop-color:#f87600;stop-opacity:1;"
         offset="1"
         id="stop83136" /></linearGradient><linearGradient
       inkscape:collect="always"
       id="linearGradient80922"><stop
         style="stop-color:#fcf9de;stop-opacity:1;"
         offset="0"
         id="stop80918" /><stop
         style="stop-color:#f87600;stop-opacity:1;"
         offset="0.67076921"
         id="stop80920" /></linearGradient><linearGradient
       inkscape:collect="always"
       id="linearGradient74832"><stop
         style="stop-color:#ffcf9b;stop-opacity:1;"
         offset="0.41230768"
         id="stop74828" /><stop
         style="stop-color:#fa8400;stop-opacity:1;"
         offset="1"
         id="stop74830" /></linearGradient><linearGradient
       inkscape:collect="always"
       id="linearGradient74824"><stop
         style="stop-color:#ffe3a7;stop-opacity:1;"
         offset="0.12307692"
         id="stop74820" /><stop
         style="stop-color:#f87600;stop-opacity:1;"
         offset="0.78917575"
         id="stop74822" /></linearGradient><radialGradient
       inkscape:collect="always"
       xlink:href="#linearGradient74824"
       id="radialGradient74826"
       cx="313.33487"
       cy="89.736794"
       fx="313.33487"
       fy="89.736794"
       r="77.88695"
       gradientTransform="matrix(-0.30372681,0.86405729,-0.81274988,-0.28569162,278.75492,-140.69882)"
       gradientUnits="userSpaceOnUse" /><radialGradient
       inkscape:collect="always"
       xlink:href="#linearGradient74832"
       id="radialGradient74834"
       cx="299.54167"
       cy="105.27505"
       fx="299.54167"
       fy="105.27505"
       r="58.860633"
       gradientTransform="matrix(1,0,0,1.0491924,-201.08333,19.162935)"
       gradientUnits="userSpaceOnUse" /><radialGradient
       inkscape:collect="always"
       xlink:href="#linearGradient80922"
       id="radialGradient80924"
       cx="341.26289"
       cy="145.45468"
       fx="341.26289"
       fy="145.45468"
       r="12.724277"
       gradientTransform="matrix(1,0,0,0.71799074,-201.22365,67.886932)"
       gradientUnits="userSpaceOnUse" /><linearGradient
       inkscape:collect="always"
       xlink:href="#linearGradient83138"
       id="linearGradient83140"
       x1="328.29943"
       y1="158.55765"
       x2="339.26801"
       y2="158.55765"
       gradientUnits="userSpaceOnUse"
       gradientTransform="translate(-201.08333,24.341667)" /><radialGradient
       inkscape:collect="always"
       xlink:href="#linearGradient83146"
       id="radialGradient83148"
       cx="345.61943"
       cy="161.59523"
       fx="345.61943"
       fy="161.59523"
       r="8.408335"
       gradientTransform="matrix(1,0,0,1.947929,-203.53887,-131.14897)"
       gradientUnits="userSpaceOnUse" /><radialGradient
       inkscape:collect="always"
       xlink:href="#linearGradient83775"
       id="radialGradient83779"
       cx="263.11948"
       cy="82.543152"
       fx="263.11948"
       fy="82.543152"
       r="62.579983"
       gradientTransform="matrix(0.25252979,1.0162435,-0.85008426,0.21124032,66.517498,-183.31516)"
       gradientUnits="userSpaceOnUse" /><linearGradient
       inkscape:collect="always"
       xlink:href="#linearGradient95365"
       id="linearGradient95367"
       x1="211.21753"
       y1="163.79302"
       x2="398.76773"
       y2="163.79302"
       gradientUnits="userSpaceOnUse"
       gradientTransform="translate(-201.08333,24.341667)" /><radialGradient
       inkscape:collect="always"
       xlink:href="#linearGradient95387"
       id="radialGradient95389"
       cx="305.85336"
       cy="133.285"
       fx="305.85336"
       fy="133.285"
       r="97.454015"
       gradientTransform="matrix(-0.19575297,0.846026,-0.90057932,-0.20837549,273.05242,-86.479983)"
       gradientUnits="userSpaceOnUse" /></defs><g
     inkscape:label="Camada 1"
     inkscape:groupmode="layer"
     id="layer1"><g
       id="g97264"><path
         style="display:inline;fill:url(#radialGradient95389);fill-opacity:1;stroke:#000000;stroke-width:3.5;stroke-linejoin:round;stroke-dasharray:none;stroke-opacity:1"
         d="m 90.040488,225.41596 c 9.25737,-2.82146 62.061872,-30.53712 100.936312,-54.30544 12.47084,-7.62483 10.63454,-34.48327 -2.13088,-43.79951 2.8221,-36.891769 -43.07688,-66.806405 -82.26807,-61.820307 -29.446002,3.746266 -58.693612,29.27351 -64.130522,65.828557 2.66375,10.45298 1.07662,7.35037 -9.47244,15.06015 -5.20754,3.80755 -5.56743,3.60953 -16.40021,12.61381 -10.8327803,9.00428 -11.2084403,25.12628 -2.08805,34.98291 9.12039,9.85663 29.22705,22.28845 41.81058,28.27978 12.58353,5.99133 24.48591,5.98151 33.74328,3.16005 z"
         id="path1712"
         sodipodi:nodetypes="zscscczzzz" /><path
         style="display:inline;fill:url(#radialGradient74826);fill-opacity:1;stroke:#000000;stroke-width:3.5;stroke-linejoin:round;stroke-dasharray:none;stroke-opacity:1"
         d="m 36.632868,153.72101 c 10.77218,14.13276 34.64091,31.01697 45.48344,34.84236 11.27953,3.97957 24.892612,3.83818 39.987452,0.82308 9.84646,-1.96677 35.05368,-14.45401 45.23142,-20.26979 10.57709,-6.04397 16.38261,-11.28333 20.35907,-15.75697 0.97786,-13.72142 0.99263,-12.73718 1.21056,-32.20865 C 189.12274,101.67958 170.82285,79.313224 140.17189,69.090705 114.346,60.477414 83.276438,63.596901 59.821808,89.868809 49.791978,101.10339 43.359768,114.10262 40.049218,128.245 c -2.13521,9.12143 -2.93718,16.84476 -3.41635,25.47601 z"
         id="path30341"
         sodipodi:nodetypes="csssczsssc" /><path
         style="fill:url(#radialGradient83779);fill-opacity:1;stroke:#000000;stroke-width:2.8;stroke-linejoin:round;stroke-dasharray:none;stroke-opacity:1"
         d="m 39.256288,170.5846 36.14724,21.44138 5.64378,-4.11226 0.4945,-31.97962 c -1.20891,-0.96166 -5.94034,-3.26961 -6.55136,-4.11698 3.25739,-25.51546 20.29217,-47.69147 31.707442,-57.385124 12.58667,-10.688378 31.02932,-21.678668 55.21877,-13.585614 -19.9025,-18.140837 -52.92878,-16.158472 -75.051092,-0.613199 -17.54993,12.332283 -30.9302,30.293707 -37.25786,56.884437 -3.12338,0.77345 -4.48735,1.31267 -7.8951,2.04122 -1.2263,10.47525 -1.97192,20.56136 -2.45632,31.42576 z"
         id="path32800"
         sodipodi:nodetypes="cccccscsccc" /><path
         style="fill:#fa8600;fill-opacity:1;stroke:#000000;stroke-width:2.018;stroke-linecap:butt;stroke-linejoin:round;stroke-dasharray:none;stroke-opacity:1"
         d="m 80.807118,156.49357 -4.80033,3.06338 z"
         id="path34565"
         sodipodi:nodetypes="ccc" /><path
         style="fill:#fa8600;fill-opacity:1;stroke:#000000;stroke-width:2.191;stroke-linecap:butt;stroke-linejoin:round;stroke-dasharray:none;stroke-opacity:1"
         d="m 75.214248,151.8493 -5.48078,3.49762 z"
         id="path34565-3"
         sodipodi:nodetypes="ccc" /><path
         style="fill:url(#radialGradient74834);fill-opacity:1;stroke:#000000;stroke-width:2;stroke-linejoin:round;stroke-dasharray:none;stroke-opacity:1"
         d="m 49.154958,144.02391 -6.06044,-4.05003 c -1.17446,9.7961 -2.34256,20.07444 -2.49681,29.87053 l 34.92745,20.52851 0.0195,-30.71928 -6.37874,-4.04859 c 1.31157,-17.48999 10.85871,-43.63961 26.32792,-59.460947 C 111.41174,79.863865 134.28607,65.90229 156.32045,77.996557 132.87911,61.676368 103.45938,69.572854 84.597058,83.376155 65.701348,97.203894 56.253288,114.06173 49.154998,144.02391 Z"
         id="path32802"
         sodipodi:nodetypes="ccccccscsc" /><path
         style="fill:url(#linearGradient95367);fill-opacity:1;stroke:none;stroke-width:3.49999;stroke-linecap:butt;stroke-linejoin:round;stroke-dasharray:none;stroke-opacity:1"
         d="m 10.134198,181.44643 c 4.57401,13.94828 41.1301,35.09671 63.75811,39.28711 7.34203,0.24273 15.67497,0.11321 27.600642,-6.35369 29.42517,-15.82871 59.87521,-30.28508 86.09224,-47.71786 5.77656,-4.0465 8.16137,-9.87313 10.09769,-15.91086 0.0555,7.45119 -1.39451,14.64471 -7.39711,18.74384 -27.95623,16.99346 -57.00846,33.0902 -87.24763,48.2158 -8.655512,4.41684 -16.253412,8.64853 -28.543872,7.66341 -7.33535,-0.16465 -18.74423,-3.89709 -33.98872,-13.75747 -13.16324,-8.51419 -29.11766,-18.14967 -30.37135,-30.17028 z"
         id="path67058"
         sodipodi:nodetypes="ccccccccsc" /><path
         style="fill:url(#radialGradient83148);fill-opacity:1;stroke:#000000;stroke-width:2;stroke-linecap:butt;stroke-linejoin:round;stroke-dasharray:none;stroke-opacity:1"
         d="m 153.12692,184.096 v -15.45097 l -18.45469,9.78959 v 15.71555 z"
         id="path69524"
         sodipodi:nodetypes="ccccc" /><path
         style="fill:url(#linearGradient83140);fill-opacity:1;stroke:#000000;stroke-width:2;stroke-linecap:butt;stroke-linejoin:round;stroke-dasharray:none;stroke-opacity:1"
         d="m 134.74496,194.17554 -6.52886,-6.52885 v -15.87915 l 6.58733,6.58731 z"
         id="path69526"
         sodipodi:nodetypes="ccccc" /><path
         style="fill:url(#radialGradient80924);fill-opacity:1;stroke:#000000;stroke-width:2;stroke-linecap:butt;stroke-linejoin:round;stroke-dasharray:none;stroke-opacity:1"
         d="m 134.69951,178.02584 -6.38462,-6.43139 18.32239,-9.48224 6.35155,6.39832 z"
         id="path69528"
         sodipodi:nodetypes="ccccc" /></g></g></svg>
